<?xml version="1.0" encoding="utf-8"?>
<!-- Generator: Adobe Illustrator 23.1.1, SVG Export Plug-In . SVG Version: 6.00 Build 0)  -->
<svg version="1.1"
	 id="svg8" xmlns:cc="http://creativecommons.org/ns#" xmlns:dc="http://purl.org/dc/elements/1.1/" xmlns:inkscape="http://www.inkscape.org/namespaces/inkscape" xmlns:rdf="http://www.w3.org/1999/02/22-rdf-syntax-ns#" xmlns:sodipodi="http://sodipodi.sourceforge.net/DTD/sodipodi-0.dtd" xmlns:svg="http://www.w3.org/2000/svg"
	 xmlns="http://www.w3.org/2000/svg" xmlns:xlink="http://www.w3.org/1999/xlink" x="0px" y="0px" viewBox="0 0 200 200"
	 style="enable-background:new 0 0 200 200;" xml:space="preserve">
<style type="text/css">
	.st0{fill:#FFFEFE;}
</style>
<path class="st0" d="M162.6,79.3L162.6,79.3l-0.1-16.8c0-13.7-11.1-24.8-24.8-24.8h-17C118.9,17.8,104,4.3,83.3,4.3
	c-21,0-35.5,13.2-37.2,33.3H29.2c-13.7,0-24.8,11.1-24.8,24.8v25c0,4.5,3.7,8.2,8.2,8.2h8.4c9.4,0,16.8,9.2,16.8,21s-7.4,21-16.8,21
	h-8.3c-4.5,0-8.1,3.6-8.2,8.1l-0.1,25c0,13.7,11.1,24.8,24.8,24.8h25c4.5,0,8.2-3.7,8.2-8.2v-4.2c0-13.3,7.7-21,21-21
	c13.6,0,21.1,7.4,21.1,21v4.1l0,0.1l0,0.1c0,2.1,0.9,4.1,2.4,5.7c1.5,1.5,3.6,2.4,5.7,2.4c0,0,0,0,0,0h25
	c13.7,0,24.8-11.1,24.8-24.8V154h0.2c18.6,0,33.1-16.4,33.1-37.3S181.1,79.3,162.6,79.3z M54,116.7c0-20.9-14.5-37.3-33.1-37.3h-0.2
	V62.5c0-4.7,3.8-8.5,8.5-8.5h24.9l0.1,0l0.1,0c2.1,0,4.1-0.9,5.7-2.4c1.5-1.5,2.4-3.6,2.4-5.8v-4.2c0-13.3,7.7-21,21-21
	c13,0,21.1,8,21.1,21v4.2c0,4.5,3.6,8.1,8.1,8.2c0.1,0,0.2,0,0.4,0h24.7c4.7,0,8.5,3.8,8.5,8.5v23.6c-0.1,0.5-0.1,0.9-0.1,1.4
	c0,4.5,3.7,8.2,8.2,8.2c0,0,0,0,0,0h8.3c9.4,0,16.8,9.2,16.8,21s-7.4,21-16.8,21h-8.3c-4.5,0-8.2,3.7-8.2,8.2v25
	c0,4.7-3.8,8.5-8.5,8.5h-17C119,158.9,104.7,146,83.3,146c-21,0-35.5,13.2-37.2,33.3h-17c-4.7,0-8.5-3.8-8.5-8.5l0.1-16.8h0.2
	C39.5,154,54,137.6,54,116.7z"/>
</svg>
